<?xml version="1.0" standalone="no"?>
<!DOCTYPE svg PUBLIC "-//W3C//DTD SVG 20010904//EN"
 "http://www.w3.org/TR/2001/REC-SVG-20010904/DTD/svg10.dtd">
<svg version="1.0" xmlns="http://www.w3.org/2000/svg"
 width="758.000000pt" height="514.000000pt" viewBox="0 0 758.000000 514.000000"
 preserveAspectRatio="xMidYMid meet">

<g transform="translate(0.000000,514.000000) scale(0.100000,-0.100000)"
fill="#000000" stroke="none">
<path d="M2687 4932 c21 -37 101 -181 178 -319 77 -138 143 -249 146 -247 4 2
60 96 124 209 65 113 122 205 127 205 5 0 6 5 2 12 -4 7 -3 8 4 4 9 -5 122 56
155 84 5 4 -6 33 -23 64 l-32 56 -359 0 -360 0 38 -68z"/>
<path d="M2197 4215 c-163 -273 -183 -321 -174 -425 10 -125 15 -133 329 -675
38 -66 74 -127 78 -135 5 -8 30 -51 56 -95 82 -142 190 -231 314 -263 26 -7
156 -13 310 -14 l265 -3 -298 515 c-165 283 -321 553 -347 599 l-49 84 41 76
c23 42 66 118 95 169 30 52 53 95 51 96 -10 9 -503 309 -513 312 -7 3 -74
-100 -158 -241z"/>
</g>
</svg>
