<svg id="Capa_1" enable-background="new 0 0 512.038 512.038" height="512" viewBox="0 0 512.038 512.038" width="512" xmlns="http://www.w3.org/2000/svg"><g><g><path d="m447.18 323.763c4.14 0 7.497-3.356 7.497-7.497v-292.573c-.001-13.064-10.629-23.693-23.693-23.693h-349.93c-13.064 0-23.692 10.629-23.692 23.693v464.653c0 13.064 10.629 23.693 23.693 23.693h349.93c13.064 0 23.693-10.629 23.693-23.693v-137.108c0-4.14-3.356-7.497-7.497-7.497s-7.497 3.356-7.497 7.497v137.107c0 4.797-3.903 8.699-8.699 8.699h-291.778v-482.051h291.777c4.797 0 8.699 3.903 8.699 8.699v292.574c0 4.141 3.356 7.497 7.497 7.497zm-322.967 173.281h-43.159c-4.797 0-8.699-3.903-8.699-8.699v-464.652c0-4.797 3.903-8.699 8.699-8.699h43.159z"/><path d="m252.954 97.869c4.14 0 7.497-3.356 7.497-7.497s-3.356-7.497-7.497-7.497h-23.353c-7.742 0-14.04 6.298-14.04 14.04v62.882c0 7.742 6.298 14.04 14.04 14.04h119.688c7.742 0 14.04-6.299 14.04-14.04v-62.882c0-7.742-6.298-14.04-14.04-14.04h-61.282c-4.14 0-7.497 3.356-7.497 7.497s3.356 7.497 7.497 7.497h60.329v60.975h-117.782v-60.975z"/><path d="m400.34 423.64h-115.84c-4.14 0-7.497 3.356-7.497 7.497 0 4.14 3.356 7.497 7.497 7.497h115.84c4.14 0 7.497-3.356 7.497-7.497 0-4.14-3.357-7.497-7.497-7.497z"/><path d="m400.34 394.898h-115.84c-4.14 0-7.497 3.356-7.497 7.497 0 4.14 3.356 7.497 7.497 7.497h115.84c4.14 0 7.497-3.356 7.497-7.497s-3.357-7.497-7.497-7.497z"/><path d="m400.34 452.382h-115.84c-4.14 0-7.497 3.356-7.497 7.497 0 4.14 3.356 7.497 7.497 7.497h115.84c4.14 0 7.497-3.356 7.497-7.497 0-4.14-3.357-7.497-7.497-7.497z"/></g></g></svg>